# xmcd
#
# Track frame offsets:
#	150
#	17328
#	32741
#	48361
#	65720
#	84229
#	101258
#	115361
#	132772
#	147068
#	165152
#	183863
#	201564
#	213229
#	229828
#	245489
#	262819
#
# Disc length: 3737 seconds
#
# Revision: 1
# Processed by: cddbd v1.5PL3 Copyright (c) Steve Scherf et al.
# Submitted via: audiograbber 1.83.01
#
DISCID=da0e9711
DTITLE=Chartbusters Vol. 3 - 90's Country Disc 3
DYEAR=1900
DGENRE=Karaoke Country
TTITLE0=Tracy Byrd - I'm From The Country
TTITLE1=Jo Dee Messina - I'm Alright
TTITLE2=Mark Wills - I Do(Cherish You)
TTITLE3=The Kinleys - Somebody's Out There Watching
TTITLE4=Brooks and Dunn - If You See Him - If You See Her
TTITLE5=Sara Evans - No Place That Far
TTITLE6=Joe Diffie - Poor Me
TTITLE7=Shania Twain - That Don't Impress Me Much
TTITLE8=Clay Walker - Then What
TTITLE9=Trisha Yearwood - There Goes My Baby
TTITLE10=Garth Brooks - To Make You Feel My Love
TTITLE11=Dixie Chicks - Wide Open Spaces
TTITLE12=Diamond Rio - Unbelievable
TTITLE13=Terri Clark - You're Easy On The Eyes
TTITLE14=Tim McGraw - Where The Green Grass Grows
TTITLE15=Shania Twain - You're Still The One
TTITLE16=T. Graham Brown - Wine Into Water
EXTD=
EXTT0=
EXTT1=
EXTT2=
EXTT3=
EXTT4=
EXTT5=
EXTT6=
EXTT7=
EXTT8=
EXTT9=
EXTT10=
EXTT11=
EXTT12=
EXTT13=
EXTT14=
EXTT15=
EXTT16=
PLAYORDER=
